<?xml version="1.0" encoding="utf-8"?>
<!-- Generator: Adobe Illustrator 19.0.0, SVG Export Plug-In . SVG Version: 6.00 Build 0)  -->
<svg version="1.1" xmlns="http://www.w3.org/2000/svg" xmlns:xlink="http://www.w3.org/1999/xlink" x="0px" y="0px"
	 viewBox="0 0 382 30" style="enable-background:new 0 0 382 30;" xml:space="preserve">
<style type="text/css">
	.st0{display:none;}
	.st1{display:inline;}
	.st2{fill:url(#XMLID_17_);}
	.st3{fill:#FFFFFF;}
	.st4{fill:url(#XMLID_18_);}
</style>
<g id="レイヤー_1" class="st0">
	<g id="XMLID_3_" class="st1">
		<linearGradient id="XMLID_17_" gradientUnits="userSpaceOnUse" x1="0" y1="14.9052" x2="382" y2="14.9052">
			<stop  offset="0" style="stop-color:#86CEDE"/>
			<stop  offset="0.1235" style="stop-color:#8FD2E1"/>
			<stop  offset="0.3288" style="stop-color:#A9DCE8"/>
			<stop  offset="0.5889" style="stop-color:#D2EDF3"/>
			<stop  offset="0.834" style="stop-color:#FFFFFF"/>
		</linearGradient>
		<rect id="XMLID_2_" y="-0.1" class="st2" width="382" height="30"/>
		
			<rect id="XMLID_1_" x="188.3" y="-33.2" transform="matrix(0.7071 -0.7071 0.7071 0.7071 44.6672 140.4363)" class="st3" width="7.1" height="99"/>
		
			<rect id="XMLID_4_" x="217.8" y="-33.2" transform="matrix(0.7071 -0.7071 0.7071 0.7071 53.3076 161.2959)" class="st3" width="7.1" height="99"/>
		
			<rect id="XMLID_5_" x="237.3" y="-33.2" transform="matrix(0.7071 -0.7071 0.7071 0.7071 59.019 175.0845)" class="st3" width="7.1" height="99"/>
		
			<rect id="XMLID_6_" x="252.8" y="-33.2" transform="matrix(0.7071 -0.7071 0.7071 0.7071 63.5589 186.0447)" class="st3" width="7.1" height="99"/>
		
			<rect id="XMLID_8_" x="252.8" y="-33.2" transform="matrix(0.7071 -0.7071 0.7071 0.7071 63.5589 186.0447)" class="st3" width="7.1" height="99"/>
		
			<rect id="XMLID_7_" x="266.3" y="-33.2" transform="matrix(0.7071 -0.7071 0.7071 0.7071 67.5129 195.5906)" class="st3" width="7.1" height="99"/>
	</g>
</g>
<g id="レイヤー_2">
	<g id="XMLID_15_">
		<linearGradient id="XMLID_18_" gradientUnits="userSpaceOnUse" x1="0" y1="15" x2="382" y2="15">
			<stop  offset="0" style="stop-color:#86CEDE"/>
			<stop  offset="0.1235" style="stop-color:#8FD2E1"/>
			<stop  offset="0.3288" style="stop-color:#A9DCE8"/>
			<stop  offset="0.5889" style="stop-color:#D2EDF3"/>
			<stop  offset="0.834" style="stop-color:#FFFFFF"/>
		</linearGradient>
		<rect id="XMLID_14_" class="st4" width="382" height="30"/>
		<polygon id="XMLID_13_" class="st3" points="210.5,30 200.4,30 170.4,0 180.5,0 		"/>
		<polygon id="XMLID_12_" class="st3" points="240,30 229.9,30 199.9,0 210,0 		"/>
		<polygon id="XMLID_11_" class="st3" points="260,30 250,30 220,0 230,0 		"/>
		<polygon id="XMLID_10_" class="st3" points="275.2,30 265.1,30 235.1,0 245.2,0 		"/>
		<polygon id="XMLID_9_" class="st3" points="288.5,30 278.5,30 248.5,0 258.5,0 		"/>
	</g>
</g>
</svg>
